<svg xmlns="http://www.w3.org/2000/svg" viewBox="0 0 77.17 76.73"><defs><style>.cls-1{fill:none;stroke:#000;stroke-miterlimit:10;stroke-width:3px;}</style></defs><title>I1</title><g id="Layer_2" data-name="Layer 2"><g id="Layer_2-2" data-name="Layer 2"><path d="M23.29,21.65c.86,1.41,1.74,2.22,1.63,2.86a2.66,2.66,0,0,1-1.75,1.84c-.62.07-2-1.07-1.91-1.53C21.37,23.94,22.26,23.15,23.29,21.65Z"/><path d="M10.21,40c-.93-1.33-1.87-2.1-1.8-2.74S9.53,36,10.15,35.38c.64.62,1.7,1.18,1.79,1.87S11.1,38.69,10.21,40Z"/><path d="M38.67,37.23c-1.34.92-2.11,1.85-2.76,1.78S34.62,37.89,34,37.27c.63-.63,1.19-1.67,1.89-1.77S37.32,36.34,38.67,37.23Z"/><path d="M53.55,13.58c-1.35.85-2.13,1.73-2.79,1.65s-1.29-1.09-1.93-1.7c.63-.64,1.22-1.72,1.91-1.8S52.19,12.63,53.55,13.58Z"/><path d="M43.41,38.2c.88,1.35,1.81,2.14,1.71,2.79S44,42.23,43.33,42.85c-.62-.63-1.67-1.23-1.73-1.92S42.49,39.51,43.41,38.2Z"/><path d="M13,44.74c-1.35.87-2.14,1.79-2.79,1.7s-1.26-1.15-1.88-1.78C8.93,44,9.52,43,10.22,42.94S11.64,43.82,13,44.74Z"/><path d="M14.76,52c-1.34.92-2.12,1.88-2.74,1.78S10.71,52.65,10.07,52c.64-.64,1.22-1.66,1.94-1.78S13.42,51.1,14.76,52Z"/><path d="M30.28,27.28c-.86-1.33-1.76-2.11-1.68-2.76s1.09-1.29,1.7-1.92c.65.62,1.74,1.19,1.82,1.88S31.24,25.92,30.28,27.28Z"/><path d="M37.84,60.3c.93,1.31,1.88,2.07,1.81,2.72a2.52,2.52,0,0,1-1.74,1.78,2.5,2.5,0,0,1-1.79-1.72C36,62.43,37,61.64,37.84,60.3Z"/><path d="M40,53c.75,1.38,1.59,2.21,1.46,2.87S40.23,57,39.57,57.62c-.6-.68-1.65-1.33-1.66-2S38.92,54.22,40,53Z"/><path d="M18.44,59.31c-1.33.92-2.1,1.87-2.75,1.79a2.54,2.54,0,0,1-1.79-1.73c0-.62,1-1.68,1.74-1.77S17.09,58.43,18.44,59.31Z"/><path d="M43.09,63.88c-.83-1.36-1.74-2.19-1.61-2.8s1.21-1.23,1.88-1.84c.6.67,1.61,1.31,1.68,2S44.09,62.62,43.09,63.88Z"/><path d="M50.58,63.88c-.84-1.36-1.75-2.19-1.62-2.8s1.21-1.23,1.87-1.84c.61.67,1.62,1.31,1.69,2S51.57,62.62,50.58,63.88Z"/><path d="M30.27,60.27c1,1.23,2.07,1.93,2,2.56s-1.05,1.38-1.63,2.07c-.68-.59-1.76-1.09-1.93-1.8S29.48,61.64,30.27,60.27Z"/><path d="M20.35,31.79c-1.26.94-2,1.91-2.67,1.89A2.46,2.46,0,0,1,15.87,32a2.5,2.5,0,0,1,1.62-1.87C18.17,30.05,19,31,20.35,31.79Z"/><path d="M33.19,31.79c-1.33.91-2.1,1.85-2.76,1.78s-1.77-1.12-1.77-1.74a2.52,2.52,0,0,1,1.75-1.77C31.06,30,31.85,30.9,33.19,31.79Z"/><path d="M39.81,29.13c.83,1.35,1.71,2.14,1.61,2.8s-1.12,1.26-1.74,1.88c-.63-.64-1.72-1.24-1.78-1.93S38.83,30.46,39.81,29.13Z"/><path d="M47.29,29.07c.81,1.37,1.69,2.21,1.57,2.85S47.64,33.11,47,33.69c-.59-.67-1.61-1.31-1.65-2S46.29,30.32,47.29,29.07Z"/><path d="M26.61,65.84c1,1.23,1.94,1.94,1.93,2.63a2.48,2.48,0,0,1-1.66,1.81A2.47,2.47,0,0,1,25,68.69C24.89,68,25.79,67.18,26.61,65.84Z"/><path d="M63.74,38.29c-1-1.27-2-2-1.92-2.65A2.51,2.51,0,0,1,63.5,33.8a2.53,2.53,0,0,1,1.86,1.65C65.47,36.1,64.57,36.92,63.74,38.29Z"/><path d="M34.17,65.73c.89,1.34,1.83,2.13,1.74,2.78a2.5,2.5,0,0,1-1.78,1.73,2.54,2.54,0,0,1-1.75-1.77C32.31,67.82,33.25,67.05,34.17,65.73Z"/><path d="M45,65.62c1,1.29,2,2,2,2.67s-1,1.34-1.56,2c-.64-.58-1.69-1.08-1.83-1.76S44.23,67,45,65.62Z"/><path d="M70,42.81c-1.3,1-2,1.91-2.71,1.87A2.43,2.43,0,0,1,65.57,43,2.53,2.53,0,0,1,67.3,41.2C67.92,41.09,68.71,42,70,42.81Z"/><path d="M61,57.42c-1.32.89-2.06,1.79-2.72,1.73s-1.34-1-2-1.57c.59-.64,1.13-1.71,1.8-1.8S59.59,56.56,61,57.42Z"/><path d="M20.27,39c-1.22,1-1.9,2-2.56,2a2.47,2.47,0,0,1-1.81-1.65,2.57,2.57,0,0,1,1.63-1.86C18.12,37.34,19,38.21,20.27,39Z"/><path d="M27.31,11.79c-1.1.9-1.91,1.91-2.27,1.78a3.06,3.06,0,0,1-1.7-1.86c-.1-.46,1-1.68,1.45-1.63C25.53,10.15,26.2,11,27.31,11.79Z"/><path d="M35,11.81c-1.43.87-2.28,1.79-2.89,1.65a2.81,2.81,0,0,1-1.56-2c-.07-.4,1.09-1.46,1.68-1.45S33.63,10.88,35,11.81Z"/><path d="M58.74,19c-1.08.89-1.93,1.91-2.22,1.78a9.71,9.71,0,0,1-2.17-2c.59-.52,1.2-1.5,1.74-1.46C56.85,17.42,57.56,18.22,58.74,19Z"/><path d="M31.05,17c-1.1.9-1.9,1.92-2.26,1.78A3,3,0,0,1,27.08,17c-.1-.45,1-1.67,1.44-1.63C29.26,15.38,29.93,16.21,31.05,17Z"/><path d="M54.34,24c.95,1.06,2,1.82,1.88,2.19a3,3,0,0,1-1.79,1.76c-.46.11-1.7-.9-1.69-1.39C52.76,25.79,53.58,25.09,54.34,24Z"/><path d="M64.66,26c-1.18,1-1.82,2-2.35,1.9-.78-.08-1.48-.88-2.22-1.38.51-.6,1-1.63,1.53-1.7C62.38,24.71,63.23,25.37,64.66,26Z"/><path d="M10.3,27.84c.79.89,1.85,1.64,1.72,2-.24.74-1.13,1.27-1.75,1.88-.62-.62-1.5-1.16-1.73-1.9C8.42,29.46,9.49,28.72,10.3,27.84Z"/><path d="M69.94,30.39c-1.43.63-2.26,1.3-3,1.22-.57-.06-1-1.08-1.56-1.67.73-.51,1.42-1.33,2.2-1.42C68.09,28.45,68.74,29.4,69.94,30.39Z"/><path d="M56.21,36.16c-.89-1.09-1.9-1.95-1.76-2.24a9.5,9.5,0,0,1,2-2.12c.52.58,1.49,1.21,1.45,1.75C57.83,34.3,57,35,56.21,36.16Z"/><path d="M27.3,35.66c-1.11.88-1.95,1.88-2.29,1.73a3.07,3.07,0,0,1-1.67-1.9c-.1-.46,1-1.66,1.49-1.6C25.56,34,26.21,34.82,27.3,35.66Z"/><path d="M49.71,53.58c-1.21,1-1.87,1.92-2.41,1.85-.77-.1-1.45-.93-2.17-1.45.53-.59,1-1.6,1.59-1.66C47.47,52.25,48.3,52.94,49.71,53.58Z"/><path d="M55,40.88c-1.1.88-1.93,1.89-2.28,1.75a3,3,0,0,1-1.68-1.89c-.1-.46,1-1.66,1.47-1.61C53.26,39.2,53.91,40.05,55,40.88Z"/><path d="M23.56,48.32c-1.11.88-1.94,1.88-2.29,1.74a3,3,0,0,1-1.67-1.9c-.1-.45,1-1.65,1.48-1.6C21.82,46.64,22.47,47.49,23.56,48.32Z"/><path d="M57.19,50.55c-1.46.6-2.31,1.25-3.06,1.15-.57-.08-1-1.11-1.51-1.71.74-.49,1.45-1.29,2.23-1.37C55.38,48.57,56,49.53,57.19,50.55Z"/><path d="M52.31,71.1c-.65-1.41-1.34-2.23-1.26-3,.05-.57,1.07-1.05,1.66-1.57.52.71,1.36,1.39,1.46,2.16C54.24,69.24,53.29,69.9,52.31,71.1Z"/><path d="M60,40.36c.76,1.19,1.56,1.9,1.6,2.66,0,.54-1,1.13-1.51,1.69a9.55,9.55,0,0,1-1.92-2.18C58.08,42.24,59.12,41.41,60,40.36Z"/><path d="M21.38,62.12c.73,1.31,1.52,2.1,1.36,2.59-.23.72-1.14,1.23-1.76,1.83-.49-.6-1.42-1.24-1.37-1.79C19.68,64,20.5,63.35,21.38,62.12Z"/><path d="M63.76,52.56c-1-1-2-1.71-1.9-2.07a3.12,3.12,0,0,1,1.68-1.86c.38-.14,1.68.83,1.68,1.31C65.24,50.65,64.47,51.38,63.76,52.56Z"/><path d="M31,43.13c-1.18.74-2,1.62-2.42,1.45a3.25,3.25,0,0,1-1.59-2c-.09-.34,1.12-1.48,1.57-1.39C29.33,41.38,29.94,42.23,31,43.13Z"/><path d="M51.36,46.8c-1.24.72-2,1.47-2.7,1.46-.48,0-1.48-1.3-1.34-1.64A3.23,3.23,0,0,1,49.21,45C49.59,44.85,50.3,45.85,51.36,46.8Z"/><path d="M49,24.92c-.83-1-1.81-1.63-1.71-2.05.18-.72,1-1.28,1.6-1.91.54.54,1.45,1,1.52,1.64S49.72,23.86,49,24.92Z"/><path d="M41.56,25.11c-.87-1.11-1.82-1.88-1.68-2.26a3.27,3.27,0,0,1,1.81-1.75c.33-.12,1.57,1,1.54,1.44C43.18,23.27,42.37,23.94,41.56,25.11Z"/><polygon class="cls-1" points="2.6 22.92 23.39 1.52 54.57 2.44 75.67 23.23 75.67 54.1 55.79 73.98 22.77 74.89 1.68 54.1 2.6 22.92"/><polygon class="cls-1" points="2.44 23.24 23.23 1.84 54.41 2.75 75.51 23.54 75.51 54.42 55.63 74.3 22.61 75.21 1.52 54.42 2.44 23.24"/></g></g></svg>