<svg xmlns="http://www.w3.org/2000/svg" viewBox="0 0 77.01 76.41"><defs><style>.cls-1{fill:none;stroke:#000;stroke-miterlimit:10;stroke-width:3px;}</style></defs><title>I2</title><g id="Layer_2" data-name="Layer 2"><g id="Layer_2-2" data-name="Layer 2"><path d="M26.72,24.44c-1.57.81-2.41,1.54-3.31,1.6-.47,0-1.58-1.4-1.46-1.61a4.67,4.67,0,0,1,2.17-2C24.55,22.25,25.42,23.38,26.72,24.44Z"/><path d="M27.5,71c-.93-1.32-1.89-2.1-1.79-2.71s1.14-1.3,1.77-2c.64.64,1.67,1.21,1.79,1.93S28.41,69.68,27.5,71Z"/><path d="M10.92,34.16c.9,1.35,1.83,2.13,1.75,2.79s-1.16,1.25-1.79,1.86c-.62-.63-1.66-1.22-1.74-1.91S10,35.48,10.92,34.16Z"/><path d="M40.51,8.64c.82,1.38,1.71,2.2,1.6,2.85s-1.21,1.19-1.88,1.78c-.59-.66-1.6-1.3-1.65-2S39.53,9.91,40.51,8.64Z"/><path d="M36.83,34.19c.79,1.38,1.67,2.23,1.54,2.88a2.53,2.53,0,0,1-1.92,1.6,2.49,2.49,0,0,1-1.6-1.89C34.83,36.12,35.83,35.43,36.83,34.19Z"/><path d="M54.25,13.42c-1.38.77-2.21,1.61-2.87,1.49s-1.22-1.16-1.82-1.8c.67-.61,1.31-1.66,2-1.69S53,12.4,54.25,13.42Z"/><path d="M44.3,19.59c-1-1.24-2-1.95-2-2.6A2.54,2.54,0,0,1,44,15.1a2.52,2.52,0,0,1,1.9,1.62C46,17.36,45.1,18.21,44.3,19.59Z"/><path d="M13.69,44.36c-1.34.91-2.11,1.84-2.76,1.76a2.54,2.54,0,0,1-1.78-1.74,2.53,2.53,0,0,1,1.75-1.77C11.56,42.53,12.34,43.46,13.69,44.36Z"/><path d="M43.13,44.52c-1.39.83-2.22,1.72-2.87,1.6s-1.21-1.19-1.8-1.85c.66-.59,1.3-1.6,2-1.65S41.84,43.55,43.13,44.52Z"/><path d="M13,48.93c.76,1.38,1.59,2.22,1.47,2.88s-1.2,1.19-1.85,1.77c-.6-.67-1.65-1.33-1.67-2S11.93,50.19,13,48.93Z"/><path d="M33.83,24.18c-1.32.89-2.1,1.82-2.79,1.75a2.45,2.45,0,0,1-1.7-1.77,2.47,2.47,0,0,1,1.72-1.75C31.75,22.35,32.52,23.28,33.83,24.18Z"/><path d="M69,51.74c-1.33.87-2.12,1.8-2.8,1.73a2.46,2.46,0,0,1-1.69-1.8,2.47,2.47,0,0,1,1.74-1.73C67,49.89,67.72,50.83,69,51.74Z"/><path d="M16.51,61.78c-1-1.27-1.94-2-1.9-2.65a2.5,2.5,0,0,1,1.68-1.83A2.51,2.51,0,0,1,18.14,59C18.25,59.6,17.35,60.42,16.51,61.78Z"/><path d="M36.79,56.35c.83,1.34,1.71,2.14,1.62,2.79S37.28,60.4,36.66,61c-.63-.64-1.71-1.23-1.78-1.93S35.81,57.68,36.79,56.35Z"/><path d="M46.77,60.71c-1.27.93-2,1.88-2.65,1.84s-1.37-1-2-1.58c.59-.69,1.11-1.8,1.8-1.92S45.37,59.85,46.77,60.71Z"/><path d="M18,28.84c1.05,1.25,2.09,1.94,2.08,2.61s-1.06,1.35-1.66,2c-.66-.58-1.73-1.08-1.86-1.76S17.28,30.22,18,28.84Z"/><path d="M30.92,28.75c1,1.24,2,1.94,2,2.6a2.54,2.54,0,0,1-1.64,1.88,2.5,2.5,0,0,1-1.89-1.61C29.24,31,30.12,30.13,30.92,28.75Z"/><path d="M43.17,31.77c-1.37.82-2.21,1.72-2.82,1.59s-1.24-1.2-1.85-1.86c.68-.6,1.31-1.6,2-1.68S41.9,30.77,43.17,31.77Z"/><path d="M28.45,62.41c1.38-.75,2.23-1.58,2.89-1.46s1.2,1.19,1.78,1.84c-.67.6-1.33,1.64-2,1.66S29.72,63.45,28.45,62.41Z"/><path d="M40.3,69.23c-.89-1.35-1.81-2.14-1.72-2.79a2.51,2.51,0,0,1,1.8-1.72,2.54,2.54,0,0,1,1.73,1.79C42.18,67.16,41.23,67.92,40.3,69.23Z"/><path d="M67.1,35.18C65.77,36.1,65,37,64.35,37a2.53,2.53,0,0,1-1.79-1.74c0-.61,1-1.68,1.74-1.77S65.75,34.29,67.1,35.18Z"/><path d="M68.18,39.86c.81,1.36,1.68,2.18,1.55,2.78s-1.18,1.24-1.83,1.85c-.58-.65-1.58-1.28-1.61-2S67.21,41.16,68.18,39.86Z"/><path d="M37.78,69.85c-1.34,1-2.06,1.92-2.75,1.9s-1.32-1-2-1.61c.6-.62,1.13-1.64,1.82-1.76S36.37,69.09,37.78,69.85Z"/><path d="M18.49,41.68c-1-1.27-1.92-2-1.88-2.63s1-1.34,1.61-2c.64.57,1.7,1.08,1.8,1.74S19.28,40.28,18.49,41.68Z"/><path d="M22.77,17.12c-1.32.75-2.15,1.61-2.76,1.48a2.52,2.52,0,0,1-1.65-1.84,2.44,2.44,0,0,1,1.79-1.64C20.83,15.12,21.52,16.11,22.77,17.12Z"/><path d="M39.41,16.78c-1.31.9-2.08,1.83-2.69,1.73s-1.32-1.1-2-1.7c.62-.62,1.18-1.65,1.86-1.73S38.05,15.9,39.41,16.78Z"/><path d="M25.37,8.79c1,1.22,1.9,1.9,1.82,2.43-.11.77-1,1.43-1.5,2.14-.58-.53-1.59-1-1.64-1.61C24,11,24.7,10.19,25.37,8.79Z"/><path d="M32.78,8.63c1,1.35,1.83,2,1.87,2.74s-1,1.8-1.35,1.74a2.76,2.76,0,0,1-2-1.48C31.12,11,32,10.13,32.78,8.63Z"/><path d="M31.77,16.73c-1.1.83-1.76,1.68-2.5,1.75-.46.05-1.56-1.15-1.47-1.61A3.1,3.1,0,0,1,29.48,15C29.84,14.84,30.66,15.85,31.77,16.73Z"/><path d="M56.89,21.29c-.81-1.18-1.74-1.94-1.68-2.61S56.38,17.52,57,17c.56.69,1.42,1.31,1.59,2.09C58.73,19.51,57.77,20.21,56.89,21.29Z"/><path d="M43,53.79c-1.4.68-2.21,1.39-3,1.33-.58,0-1.09-1-1.64-1.62.71-.54,1.37-1.39,2.15-1.5C41,51.92,41.73,52.85,43,53.79Z"/><path d="M16.15,19.91c1,1.07,2,1.83,1.87,2.21a3,3,0,0,1-1.8,1.74c-.46.11-1.7-.91-1.69-1.39C14.56,21.75,15.38,21.05,16.15,19.91Z"/><path d="M46.7,25.84c-1.24.92-2,1.83-2.49,1.75-.76-.13-1.41-1-2.11-1.54.55-.56,1.08-1.55,1.67-1.59C44.52,24.42,45.32,25.14,46.7,25.84Z"/><path d="M57.94,26.18c-1.38.71-2.17,1.44-2.92,1.41s-1.14-1-1.7-1.57c.69-.55,1.32-1.42,2.09-1.55C56,24.37,56.67,25.27,57.94,26.18Z"/><path d="M65.4,25.74c-1.22,1-1.89,1.91-2.42,1.84-.77-.11-1.45-.94-2.17-1.45.53-.59,1-1.6,1.59-1.66C63.15,24.4,64,25.09,65.4,25.74Z"/><path d="M11,27.53c.8.88,1.85,1.63,1.73,2-.24.73-1.14,1.26-1.76,1.87-.61-.62-1.5-1.16-1.73-1.9C9.15,29.13,10.22,28.4,11,27.53Z"/><path d="M59.47,33.3c-1.17.81-1.86,1.63-2.62,1.7-.54,0-1.18-.91-1.77-1.42a9.5,9.5,0,0,1,2.12-2C57.49,31.43,58.36,32.43,59.47,33.3Z"/><path d="M26,32.62c.6,1.44,1.26,2.28,1.16,3-.07.57-1.11,1-1.71,1.51-.5-.73-1.31-1.43-1.38-2.21C24,34.42,25,33.79,26,32.62Z"/><path d="M60.5,40c.88,1.12,1.74,1.76,1.86,2.51.08.53-.85,1.22-1.32,1.83a9.16,9.16,0,0,1-2.12-2C58.76,42.09,59.7,41.17,60.5,40Z"/><path d="M47.79,56c-.86-1.07-1.73-1.71-1.83-2.44-.06-.46,1.13-1.59,1.58-1.5a3.1,3.1,0,0,1,2,1.63C49.65,54,48.65,54.83,47.79,56Z"/><path d="M62.4,54.43c1,1.28,2,2,1.93,2.64a2.78,2.78,0,0,1-1.82,1.74c-.42.12-1.63-.91-1.64-1.44C60.85,56.62,61.61,55.85,62.4,54.43Z"/><path d="M55.74,40.51c-1.1.91-1.9,1.93-2.26,1.79a3,3,0,0,1-1.71-1.85c-.1-.45,1-1.67,1.44-1.63C54,38.87,54.62,39.71,55.74,40.51Z"/><path d="M53,61.83c-.64-1.42-1.33-2.24-1.25-3,.06-.57,1.08-1.05,1.67-1.57.52.72,1.35,1.4,1.45,2.17C55,60,54,60.63,53,61.83Z"/><path d="M22,45.27c.72,1.37,1.45,2.15,1.41,2.9,0,.59-1,1.12-1.57,1.69-.56-.69-1.43-1.33-1.57-2.09C20.22,47.24,21.12,46.52,22,45.27Z"/><path d="M53.67,65.39c.62,1.42,1.3,2.25,1.22,3-.07.57-1.09,1-1.69,1.55-.51-.73-1.33-1.41-1.42-2.19C51.71,67.23,52.67,66.58,53.67,65.39Z"/><path d="M48.58,69.85c-1.11.92-1.78,1.91-2.47,1.93s-1.28-1-1.92-1.62c.63-.62,1.18-1.53,1.93-1.76C46.6,68.25,47.4,69.11,48.58,69.85Z"/><path d="M21.87,61.8c.84,1.21,1.71,1.93,1.6,2.43-.17.75-1,1.35-1.59,2-.55-.55-1.55-1.1-1.55-1.65C20.33,63.86,21.1,63.12,21.87,61.8Z"/><path d="M56.78,52.31c-.76-1.2-1.53-1.91-1.54-2.63,0-.49,1.27-1.5,1.61-1.37a3.25,3.25,0,0,1,1.72,1.83C58.69,50.52,57.7,51.24,56.78,52.31Z"/><path d="M51.89,22.1c-.94.84-1.6,1.83-2,1.74-.73-.16-1.31-1-2-1.55.53-.55,1-1.45,1.63-1.54S50.81,21.43,51.89,22.1Z"/><path d="M70,27.26c.83,1.16,1.65,1.82,1.72,2.55,0,.48-1.19,1.58-1.53,1.47a3.28,3.28,0,0,1-1.84-1.74C68.16,29.16,69.1,28.38,70,27.26Z"/><path d="M49.76,43.69c.77,1.26,1.6,2,1.45,2.51-.22.73-1.12,1.25-1.73,1.87C49,47.5,48,46.9,48,46.37,48.1,45.63,48.9,45,49.76,43.69Z"/><path d="M31.75,42.35c-1,.95-1.71,2-2.12,1.87a3,3,0,0,1-1.88-1.62c-.14-.36.82-1.67,1.27-1.66C29.77,40.94,30.52,41.66,31.75,42.35Z"/><path d="M49.63,30.69c.79,1.27,1.55,2,1.58,2.72,0,.53-.94,1.1-1.46,1.66-.6-.63-1.5-1.18-1.71-1.92C47.91,32.67,48.79,31.92,49.63,30.69Z"/><polygon class="cls-1" points="2.44 22.92 23.23 1.52 54.41 2.44 75.51 23.23 75.51 54.1 55.63 73.98 22.61 74.89 1.52 54.1 2.44 22.92"/></g></g></svg>