<svg xmlns="http://www.w3.org/2000/svg" viewBox="0 0 77.01 76.41"><defs><style>.cls-1{fill:none;stroke:#000;stroke-miterlimit:10;stroke-width:3px;}</style></defs><title>I3</title><g><g><path d="M17.07,30.7c.83,1.38,1.72,2.2,1.6,2.85s-1.21,1.19-1.87,1.78c-.59-.66-1.61-1.3-1.65-2S16.09,32,17.07,30.7Z"/><path d="M44.58,36.23c-.89-1.35-1.82-2.14-1.73-2.79a2.52,2.52,0,0,1,1.79-1.72,2.52,2.52,0,0,1,1.74,1.78C46.45,34.15,45.51,34.91,44.58,36.23Z"/><path d="M27.07,9.7c-1.41.85-2.26,1.77-2.91,1.65S23,10.1,22.37,9.41c.69-.56,1.35-1.52,2.06-1.56S25.81,8.76,27.07,9.7Z"/><path d="M50.67,32.88c.83,1.36,1.73,2.19,1.6,2.8s-1.21,1.23-1.88,1.84c-.6-.68-1.61-1.31-1.68-2S49.67,34.14,50.67,32.88Z"/><path d="M69.19,40.26c-1.34.92-2.12,1.87-2.74,1.78s-1.3-1.14-2-1.77c.64-.63,1.22-1.66,1.94-1.77S67.86,39.35,69.19,40.26Z"/><path d="M16.93,17.86c-.92-1.33-1.87-2.1-1.79-2.75s1.13-1.28,1.76-1.91c.63.62,1.68,1.19,1.77,1.88S17.83,16.51,16.93,17.86Z"/><path d="M38.45,40.8c-1.24,1-2,2.05-2.57,2s-1.4-1-2.09-1.63c.6-.68,1.1-1.75,1.82-1.91S37.08,40,38.45,40.8Z"/><path d="M41.93,15.07c-1.34.9-2.11,1.84-2.76,1.76a2.54,2.54,0,0,1-1.78-1.74,2.53,2.53,0,0,1,1.75-1.77C39.8,13.24,40.58,14.17,41.93,15.07Z"/><path d="M57.94,18.27c-.88-1.32-1.81-2.1-1.75-2.79A2.48,2.48,0,0,1,58,13.81a2.48,2.48,0,0,1,1.75,1.73C59.8,16.22,58.85,17,57.94,18.27Z"/><path d="M9.44,39.73c.92,1.29,1.85,2,1.79,2.68s-1,1.33-1.62,2c-.68-.61-1.78-1.14-1.9-1.83S8.54,41.11,9.44,39.73Z"/><path d="M47.39,18.58c-1.26,1-2,2-2.62,2s-1.36-1-2-1.6c.58-.68,1.07-1.77,1.76-1.91S46,17.79,47.39,18.58Z"/><path d="M51.68,43c1.37-.8,2.22-1.69,2.9-1.58a2.49,2.49,0,0,1,1.56,1.93A2.46,2.46,0,0,1,54.29,45C53.6,45,52.9,44,51.68,43Z"/><path d="M26.39,42.17c1,1.25,1.93,2,1.91,2.65a2.49,2.49,0,0,1-1.68,1.8A2.49,2.49,0,0,1,24.75,45C24.66,44.32,25.56,43.51,26.39,42.17Z"/><path d="M32.24,45.69c.75,1.38,1.59,2.22,1.46,2.88s-1.19,1.18-1.85,1.77c-.6-.68-1.65-1.34-1.66-2S31.2,46.94,32.24,45.69Z"/><path d="M68.6,51c-.95-1.25-1.93-2-1.91-2.65a2.48,2.48,0,0,1,1.67-1.8,2.5,2.5,0,0,1,1.89,1.61C70.34,48.84,69.44,49.65,68.6,51Z"/><path d="M13.16,19.63c.93,1.28,1.86,2,1.81,2.67s-1,1.34-1.61,2c-.68-.6-1.79-1.12-1.91-1.82S12.28,21,13.16,19.63Z"/><path d="M9.55,52.73c-1-1.35-1.92-2.13-1.84-2.79s1.17-1.26,1.82-1.89c.6.63,1.62,1.22,1.7,1.91S10.41,51.4,9.55,52.73Z"/><path d="M63.23,57.35c-.93-1.33-1.89-2.1-1.79-2.72s1.14-1.3,1.78-1.94c.63.64,1.67,1.21,1.78,1.93S64.15,56,63.23,57.35Z"/><path d="M49.63,56c-1.4.8-2.25,1.67-2.89,1.54s-1.19-1.23-1.77-1.9c.68-.58,1.34-1.58,2-1.61S48.37,55,49.63,56Z"/><path d="M71.77,24.85c-1.37.79-2.22,1.68-2.9,1.56a2.46,2.46,0,0,1-1.56-1.92,2.45,2.45,0,0,1,1.85-1.6C69.86,22.89,70.55,23.87,71.77,24.85Z"/><path d="M18.94,23.35c.88,1.39,1.81,2.23,1.69,2.87s-1.24,1.21-1.92,1.8c-.57-.67-1.55-1.32-1.6-2S18,24.61,18.94,23.35Z"/><path d="M40.88,23.34c.92,1.29,1.85,2,1.8,2.68s-1,1.34-1.62,2c-.68-.6-1.79-1.13-1.9-1.82S40,24.73,40.88,23.34Z"/><path d="M48.29,28.89c-.85-1.4-1.78-2.24-1.65-2.88s1.25-1.2,1.94-1.78c.57.68,1.54,1.33,1.58,2S49.24,27.64,48.29,28.89Z"/><path d="M27.09,59.19c-1.36.82-2.16,1.69-2.82,1.6S23,59.67,22.38,59.05c.65-.63,1.25-1.7,1.95-1.76S25.75,58.21,27.09,59.19Z"/><path d="M54.8,68.33c-1.38.93-2.18,1.89-2.83,1.8S50.71,69,50.09,68.3c.64-.6,1.25-1.59,1.95-1.67S53.47,67.46,54.8,68.33Z"/><path d="M34.55,63c-1.38.77-2.21,1.61-2.87,1.5s-1.22-1.17-1.81-1.81c.66-.61,1.31-1.66,2-1.69S33.26,62,34.55,63Z"/><path d="M39.11,59.94C40,61.27,41,62,40.91,62.69s-1.13,1.76-1.75,1.76a2.55,2.55,0,0,1-1.79-1.74C37.29,62.06,38.22,61.28,39.11,59.94Z"/><path d="M51,63c-1.38.77-2.21,1.61-2.87,1.49S47,63.34,46.36,62.69c.66-.6,1.31-1.65,2-1.68S49.75,62,51,63Z"/><path d="M24.53,34.26c-1-1.23-2.08-1.93-2-2.55s1-1.39,1.63-2.08c.68.59,1.75,1.08,1.92,1.79S25.32,32.89,24.53,34.26Z"/><path d="M35.39,71c-.85-1.26-1.77-2-1.68-2.67a2.49,2.49,0,0,1,1.81-1.64,2.41,2.41,0,0,1,1.75,1.67C37.31,69,36.34,69.7,35.39,71Z"/><path d="M9.7,32.42c.78,1.41,1.63,2.25,1.5,2.9S10,36.49,9.32,37.07c-.54-.67-1.51-1.32-1.52-2S8.73,33.7,9.7,32.42Z"/><path d="M39.94,33.44c-1.34.92-2.09,1.84-2.75,1.78s-1.28-1.08-1.91-1.68c.64-.63,1.2-1.63,1.92-1.76S38.61,32.58,39.94,33.44Z"/><path d="M32.94,33.44c-1.34.92-2.09,1.84-2.75,1.78s-1.28-1.08-1.91-1.68c.64-.63,1.2-1.63,1.92-1.76S31.61,32.58,32.94,33.44Z"/><path d="M32.94,40.44c-1.34.92-2.09,1.84-2.75,1.78s-1.28-1.08-1.91-1.68c.64-.63,1.2-1.63,1.92-1.76S31.61,39.58,32.94,40.44Z"/><path d="M63.94,45.44c-1.34.92-2.09,1.84-2.75,1.78s-1.28-1.08-1.91-1.68c.64-.63,1.2-1.63,1.92-1.76S62.61,44.58,63.94,45.44Z"/><path d="M62.94,51.44c-1.34.92-2.09,1.84-2.75,1.78s-1.28-1.08-1.91-1.68c.64-.63,1.2-1.63,1.92-1.76S61.61,50.58,62.94,51.44Z"/><path d="M72.94,44.44c-1.34.92-2.09,1.84-2.75,1.78s-1.28-1.08-1.91-1.68c.64-.63,1.2-1.63,1.92-1.76S71.61,43.58,72.94,44.44Z"/><path d="M16.94,43.58c-.91-1.24-1.86-2-1.8-2.61a2.52,2.52,0,0,1,1.66-1.83c.57-.07,1.72,1,1.8,1.6S17.79,42.22,16.94,43.58Z"/><path d="M44.89,38.23c.94,1.36,1.87,2.11,1.82,2.79s-1.09,1.27-1.69,1.9c-.61-.62-1.61-1.19-1.71-1.88S44.08,39.59,44.89,38.23Z"/><path d="M33.48,5.18c.86,1.09,1.81,1.8,1.71,2.28-.17.77-1,1.39-1.61,2.07-.64-.57-1.75-1.12-1.8-1.74S32.66,6.35,33.48,5.18Z"/><path d="M45.33,7.52c-1,.94-1.63,1.94-2.11,1.88C42.44,9.3,41.75,8.49,41,8c.52-.7,1-1.86,1.57-2S44.1,6.8,45.33,7.52Z"/><path d="M49.87,7c1,1.22,1.9,1.89,1.82,2.43-.11.76-1,1.42-1.5,2.13-.58-.53-1.59-1-1.64-1.61C48.49,9.24,49.2,8.43,49.87,7Z"/><path d="M32.3,15.06c-1.13.79-1.81,1.62-2.54,1.65-.49,0-1.53-1.2-1.43-1.65a3,3,0,0,1,1.73-1.82C30.44,13.11,31.22,14.14,32.3,15.06Z"/><path d="M22.8,21.38c-1-1.17-2-1.8-1.93-2.33.08-.77.88-1.47,1.38-2.2.6.49,1.64.94,1.71,1.5C24.05,19.11,23.4,20,22.8,21.38Z"/><path d="M35.44,18.15c.92,1.09,2,1.87,1.82,2.24a3,3,0,0,1-1.84,1.71c-.46.11-1.68-.94-1.66-1.42C33.81,20,34.64,19.27,35.44,18.15Z"/><path d="M61.75,25.17c-.9-1.08-1.93-1.88-1.8-2.24a3,3,0,0,1,1.87-1.7c.45-.1,1.68,1,1.64,1.43C63.4,23.4,62.56,24.07,61.75,25.17Z"/><path d="M55.8,32.61C55,31.46,54,30.54,54.21,30.25a9.19,9.19,0,0,1,2.12-2c.48.61,1.41,1.3,1.33,1.83C57.54,30.84,56.68,31.48,55.8,32.61Z"/><path d="M63.65,27.5c.76,1.17,1.64,1.95,1.49,2.43-.22.75-1.13,1.3-1.76,1.94-.59-.63-1.64-1.27-1.64-1.9S62.74,28.61,63.65,27.5Z"/><path d="M72.86,32.08c-1.41.62-2.24,1.3-3,1.2s-1-1.11-1.51-1.72c.72-.51,1.41-1.33,2.18-1.43C71.07,30.07,71.71,31.05,72.86,32.08Z"/><path d="M51.52,52.79c1.22-.95,1.91-1.88,2.44-1.8.78.11,1.44,1,2.15,1.49-.54.58-1,1.58-1.63,1.63C53.73,54.17,52.92,53.46,51.52,52.79Z"/><path d="M15.2,52.83c.77,1.19,1.68,2,1.6,2.66s-1.22,1.12-1.89,1.67c-.55-.71-1.39-1.36-1.53-2.14C13.29,54.54,14.28,53.87,15.2,52.83Z"/><path d="M31.69,53.12c.93,1.08,2,1.87,1.83,2.23a3,3,0,0,1-1.84,1.72c-.45.11-1.68-.94-1.66-1.42C30.06,54.92,30.9,54.24,31.69,53.12Z"/><path d="M22.76,36.1c.62,1.42,1.29,2.26,1.21,3-.07.57-1.09,1-1.69,1.55-.51-.73-1.33-1.42-1.42-2.19C20.8,37.93,21.75,37.29,22.76,36.1Z"/><path d="M62.39,36.6c-1.36,1-2,1.81-2.76,1.85s-1.81-1-1.75-1.35a2.76,2.76,0,0,1,1.49-2C60,34.94,60.88,35.79,62.39,36.6Z"/><path d="M21.56,61c-1.39.89-2.23,1.84-2.83,1.71a2.85,2.85,0,0,1-1.6-2c-.09-.39,1.05-1.5,1.6-1.48C19.47,59.32,20.19,60.13,21.56,61Z"/><path d="M56,58.4c.85,1.46,1.62,2.22,1.62,3,0,.55-1.18,1.66-1.53,1.55-.76-.24-1.75-1-1.85-1.72S55.12,59.78,56,58.4Z"/><path d="M19.54,48.27c-1.39.7-2.19,1.42-2.94,1.37-.59,0-1.12-1-1.68-1.58.7-.55,1.35-1.41,2.12-1.54C17.58,46.43,18.28,47.35,19.54,48.27Z"/><path d="M28.57,66.38c-1.13.8-1.81,1.64-2.54,1.69-.48,0-1.54-1.19-1.44-1.64a3,3,0,0,1,1.72-1.84C26.67,64.45,27.47,65.47,28.57,66.38Z"/><path d="M43,65.79c.79,1.16,1.73,2.08,1.57,2.37a9.47,9.47,0,0,1-2.14,2c-.47-.63-1.39-1.32-1.31-1.85C41.21,67.54,42.08,66.9,43,65.79Z"/><path d="M52.61,16.75c-1.1.93-1.69,1.79-2.43,1.92-.47.09-1.69-1.05-1.6-1.38a3.31,3.31,0,0,1,1.61-2C50.57,15.15,51.43,16,52.61,16.75Z"/><path d="M39.11,49c-.75-1.14-1.65-2-1.48-2.34a3.24,3.24,0,0,1,2-1.61c.38-.09,1.54,1.11,1.46,1.56C40.91,47.35,40,47.94,39.11,49Z"/><path d="M54,26.57c-.81-1-1.78-1.67-1.67-2.1.19-.71,1.06-1.25,1.64-1.87.53.56,1.43,1.08,1.49,1.68S54.69,25.52,54,26.57Z"/><path d="M28.46,24.11c-.95.82-1.64,1.8-2.07,1.69-.72-.17-1.28-1-1.91-1.59.54-.54,1-1.43,1.65-1.51S27.39,23.42,28.46,24.11Z"/><path d="M50.94,46.48c-1,.81-1.68,1.77-2.11,1.66-.72-.19-1.26-1-1.88-1.63C47.51,46,48,45.09,48.64,45S49.88,45.77,50.94,46.48Z"/><path d="M33.22,25.53c1,1,2,1.7,1.91,2.08a3.2,3.2,0,0,1-1.64,1.91c-.34.15-1.66-.81-1.68-1.3C31.78,27.5,32.53,26.76,33.22,25.53Z"/><path d="M42,53.72c-1.15,1-1.8,1.91-2.29,1.83-.77-.12-1.42-.94-2.12-1.46.5-.58,1-1.59,1.49-1.63C39.78,52.41,40.58,53.08,42,53.72Z"/><path d="M12.09,28.07c-1.33.73-2.09,1.46-2.84,1.45-.53,0-1-1-1.55-1.61.68-.55,1.3-1.38,2.07-1.54C10.24,26.27,10.93,27.18,12.09,28.07Z"/><path d="M22.39,49.49c.77,1,1.61,1.62,1.59,2.2s-.88,1.17-1.36,1.76c-.63-.58-1.54-1.06-1.77-1.76C20.71,51.28,21.64,50.51,22.39,49.49Z"/><polygon class="cls-1" points="2.44 22.92 23.23 1.52 54.41 2.44 75.51 23.23 75.51 54.1 55.63 73.98 22.61 74.89 1.52 54.1 2.44 22.92"/></g></g></svg>
