<svg xmlns="http://www.w3.org/2000/svg" viewBox="0 0 77.01 76.41"><defs><style>.cls-1{fill:none;stroke:#000;stroke-miterlimit:10;stroke-width:3px;}</style></defs><title>SI2_1</title><g><g><path d="M23.86,20.45c.92,1.37,1.85,2.13,1.77,2.78A2.68,2.68,0,0,1,24,25.15c-.63.1-2-1-2-1.44C22,22.82,22.9,22,23.86,20.45Z"/><path d="M10.91,38.86C10,37.52,9,36.76,9.11,36.11s1.12-1.28,1.74-1.92c.64.62,1.69,1.18,1.79,1.88S11.81,37.5,10.91,38.86Z"/><path d="M54.24,12.42c-1.35.82-2.15,1.7-2.81,1.61s-1.27-1.12-1.89-1.74c.64-.63,1.25-1.71,1.94-1.77S52.91,11.45,54.24,12.42Z"/><path d="M36.46,33.3c1,1.29,1.94,2,1.88,2.68s-1.07,1.31-1.67,2c-.66-.6-1.74-1.13-1.85-1.81S35.62,34.67,36.46,33.3Z"/><path d="M46.85,39.82c-1.35.89-2.14,1.81-2.79,1.72s-1.26-1.14-1.88-1.77c.63-.62,1.22-1.65,1.92-1.74S45.52,38.9,46.85,39.82Z"/><path d="M33.8,23.16c-1.26.94-2,1.91-2.67,1.89a2.47,2.47,0,0,1-1.81-1.67,2.48,2.48,0,0,1,1.62-1.86C31.62,21.43,32.44,22.33,33.8,23.16Z"/><path d="M43.15,54.73c-1.37.83-2.21,1.73-2.82,1.6s-1.24-1.2-1.85-1.87c.68-.59,1.31-1.6,2-1.67S41.88,53.74,43.15,54.73Z"/><path d="M54.23,60.21C52.85,61,52,61.82,51.35,61.7s-1.21-1.17-1.81-1.81c.67-.61,1.32-1.66,2-1.69S52.94,59.19,54.23,60.21Z"/><path d="M31.38,59.1c.83,1.36,1.74,2.19,1.61,2.8s-1.22,1.23-1.88,1.84c-.61-.68-1.61-1.31-1.69-2S30.38,60.36,31.38,59.1Z"/><path d="M21.06,30.78c-1.33.87-2.12,1.79-2.81,1.72a2.5,2.5,0,0,1-1.68-1.81A2.47,2.47,0,0,1,18.32,29C19,28.92,19.76,29.86,21.06,30.78Z"/><path d="M40.48,27.94c.85,1.34,1.73,2.12,1.65,2.78S41,32,40.4,32.62c-.64-.63-1.72-1.22-1.79-1.91S39.52,29.28,40.48,27.94Z"/><path d="M30.28,67.49c-1.34.85-2.13,1.74-2.79,1.65s-1.29-1.09-1.92-1.7c.63-.64,1.21-1.72,1.91-1.8S28.92,66.53,30.28,67.49Z"/><path d="M37.61,67.18c-1.26,1-2,2-2.63,1.92a2.52,2.52,0,0,1-1.88-1.64,2.53,2.53,0,0,1,1.64-1.87C35.4,65.47,36.24,66.36,37.61,67.18Z"/><path d="M61.53,34.12c1.39-.79,2.24-1.66,2.89-1.53s1.18,1.23,1.75,1.91c-.68.57-1.34,1.57-2,1.59S62.77,35.11,61.53,34.12Z"/><path d="M61.74,56.34C60.38,57.2,59.61,58.07,59,58s-1.3-1.06-2-1.65c.62-.62,1.2-1.67,1.87-1.73S60.34,55.44,61.74,56.34Z"/><path d="M68.06,44.47c-.91-1.24-1.86-2-1.8-2.6A2.51,2.51,0,0,1,67.92,40c.57-.07,1.73,1,1.8,1.6S68.91,43.12,68.06,44.47Z"/><path d="M65.39,25c-1.26.92-2,1.83-2.51,1.74-.77-.13-1.41-1-2.11-1.54.56-.57,1.1-1.55,1.68-1.59C63.21,23.54,64,24.27,65.39,25Z"/><path d="M10.9,31.26c-.8-1.12-1.63-1.8-1.67-2.53,0-.48,1.21-1.52,1.67-1.42A3,3,0,0,1,12.73,29C12.86,29.4,11.82,30.18,10.9,31.26Z"/><path d="M70.64,29.2c-1.43.62-2.26,1.3-3,1.22-.58-.07-1-1.08-1.56-1.68.72-.51,1.41-1.33,2.19-1.42C68.79,27.26,69.45,28.21,70.64,29.2Z"/><path d="M59.43,32.66c-1.23.71-2,1.47-2.75,1.47-.54,0-1.08-1-1.62-1.58a9.13,9.13,0,0,1,2.27-1.81C57.63,30.62,58.42,31.7,59.43,32.66Z"/><path d="M25.35,31.74c1,1.22,1.9,1.9,1.82,2.43-.11.77-1,1.43-1.5,2.14-.58-.54-1.59-1-1.64-1.61C24,33.94,24.68,33.13,25.35,31.74Z"/><path d="M57.9,48.8c-1.25.93-2,1.84-2.49,1.75-.77-.13-1.42-1-2.11-1.54.55-.56,1.08-1.55,1.67-1.59C55.72,47.38,56.52,48.1,57.9,48.8Z"/><path d="M53.51,37c.7,1.39,1.42,2.18,1.37,2.93,0,.59-1,1.11-1.61,1.66-.54-.7-1.4-1.35-1.53-2.11C51.65,38.91,52.57,38.22,53.51,37Z"/><path d="M60.59,39.16c.83,1.15,1.67,1.83,1.75,2.58.06.54-.9,1.18-1.4,1.78a9.38,9.38,0,0,1-2-2.08C58.74,41.16,59.74,40.27,60.59,39.16Z"/><path d="M28,10.64c-1.12.87-2,1.87-2.3,1.73A3.09,3.09,0,0,1,24,10.46c-.09-.46,1-1.65,1.49-1.6C26.27,8.94,26.91,9.8,28,10.64Z"/><path d="M24.27,47.21c-1.13.79-1.82,1.61-2.54,1.65-.49,0-1.54-1.19-1.43-1.65A3,3,0,0,1,22,45.39C22.4,45.26,23.18,46.29,24.27,47.21Z"/><path d="M59.46,18c-1.16.8-2.08,1.75-2.37,1.58a9.16,9.16,0,0,1-2-2.1c.62-.48,1.31-1.4,1.85-1.32C57.68,16.28,58.33,17.13,59.46,18Z"/><path d="M29.36,39.13c.76,1.3,1.52,2,1.52,2.79,0,.52-1,1-1.57,1.58-.57-.66-1.42-1.26-1.59-2C27.6,41,28.5,40.3,29.36,39.13Z"/><path d="M49.55,19.11c.77,1,1.61,1.62,1.59,2.21s-.88,1.17-1.37,1.75C49.15,22.5,48.24,22,48,21.32,47.86,20.9,48.79,20.14,49.55,19.11Z"/><path d="M64.17,51.4c-.83-1.1-1.78-1.91-1.64-2.26a3.27,3.27,0,0,1,1.89-1.69c.39-.1,1.59,1,1.54,1.48C65.87,49.66,65,50.3,64.17,51.4Z"/><polygon class="cls-1" points="2.44 22.92 23.23 1.52 54.41 2.44 75.51 23.23 75.51 54.1 55.63 73.98 22.61 74.89 1.52 54.1 2.44 22.92"/></g></g></svg>
