<svg xmlns="http://www.w3.org/2000/svg" viewBox="0 0 77.01 76.41"><defs><style>.cls-1{fill:none;stroke:#000;stroke-miterlimit:10;stroke-width:3px;}</style></defs><title>VS1_1</title><g id="Layer_2" data-name="Layer 2"><g id="Layer_2-2" data-name="Layer 2"><path d="M62,34.53c1.39-.79,2.24-1.66,2.89-1.53s1.18,1.23,1.75,1.91c-.68.57-1.34,1.57-2,1.59S63.28,35.53,62,34.53Z"/><path d="M54.74,12.61c-1.28.93-2,1.87-2.66,1.83s-1.36-1-2-1.59c.59-.68,1.11-1.79,1.81-1.92S53.34,11.74,54.74,12.61Z"/><path d="M18.73,33.93c-.86-1.34-1.75-2.12-1.67-2.77s1.11-1.28,1.72-1.92c.64.63,1.73,1.21,1.81,1.91S19.69,32.58,18.73,33.93Z"/><path d="M11.22,33.72c1,1.27,2,2,1.93,2.64a2.52,2.52,0,0,1-1.66,1.86,2.54,2.54,0,0,1-1.87-1.65C9.5,35.92,10.39,35.09,11.22,33.72Z"/><path d="M38.14,67.74c-1.33.91-2.1,1.84-2.76,1.77a2.56,2.56,0,0,1-1.77-1.75c0-.62,1-1.68,1.75-1.76S36.8,66.84,38.14,67.74Z"/><path d="M28,65.07c.9,1.31,1.83,2.09,1.77,2.77A2.45,2.45,0,0,1,28,69.53a2.45,2.45,0,0,1-1.76-1.71C26.15,67.14,27.09,66.37,28,65.07Z"/><path d="M68.58,44.88c-.91-1.24-1.87-2-1.81-2.6a2.56,2.56,0,0,1,1.65-1.84c.57-.07,1.74,1,1.81,1.6S69.42,43.53,68.58,44.88Z"/><path d="M59.68,59.35c-1-1.17-2.07-1.82-2-2.45s1-1.85,1.6-1.87a2.59,2.59,0,0,1,2,1.58C61.35,57.17,60.45,58,59.68,59.35Z"/><path d="M56.22,40.11c-1.1.88-1.93,1.89-2.28,1.75A3,3,0,0,1,52.26,40c-.1-.45,1-1.66,1.47-1.61C54.48,38.44,55.13,39.28,56.22,40.11Z"/><path d="M61.37,39.6c.71,1.22,1.47,2,1.48,2.73,0,.53-1,1.07-1.59,1.61a9.57,9.57,0,0,1-1.82-2.26C59.32,41.38,60.41,40.61,61.37,39.6Z"/><path d="M60,32.59c-1.1.92-1.71,1.81-2.47,1.95-.53.1-1.26-.8-1.9-1.25a9.05,9.05,0,0,1,1.93-2.17C57.83,30.94,58.78,31.84,60,32.59Z"/><path d="M71.15,29.58c-1.42.64-2.25,1.33-3,1.25-.58-.06-1.06-1.07-1.58-1.66.72-.51,1.4-1.34,2.18-1.44C69.28,27.66,69.94,28.6,71.15,29.58Z"/><path d="M58.4,49.73c-1.43.62-2.27,1.3-3,1.21-.57-.06-1-1.08-1.55-1.68.72-.5,1.42-1.32,2.19-1.41C56.55,47.79,57.21,48.74,58.4,49.73Z"/><path d="M28.52,11c-1.09.92-1.88,2-2.25,1.82a3,3,0,0,1-1.72-1.83c-.11-.45.95-1.68,1.43-1.65C26.71,9.33,27.39,10.16,28.52,11Z"/><path d="M63.09,28c-.8-1.13-1.63-1.81-1.67-2.54,0-.48,1.2-1.52,1.66-1.41a3,3,0,0,1,1.84,1.72C65.05,26.09,64,26.87,63.09,28Z"/><path d="M11.57,26.89c.85,1.12,1.85,2,1.69,2.31a3.1,3.1,0,0,1-1.95,1.63c-.45.09-1.65-1-1.58-1.5C9.83,28.59,10.7,28,11.57,26.89Z"/><path d="M67.4,49.49c-1.3.74-2,1.47-2.79,1.48-.55,0-1.11-.95-1.67-1.47.65-.58,1.24-1.47,2-1.65C65.42,47.73,66.16,48.63,67.4,49.49Z"/><polygon class="cls-1" points="2.44 22.92 23.23 1.52 54.41 2.44 75.51 23.23 75.51 54.1 55.63 73.98 22.61 74.89 1.52 54.1 2.44 22.92"/></g></g></svg>