<svg xmlns="http://www.w3.org/2000/svg" viewBox="0 0 77.01 76.41"><defs><style>.cls-1{fill:none;stroke:#000;stroke-miterlimit:10;stroke-width:3px;}</style></defs><title>VS2</title><g id="Layer_2" data-name="Layer 2"><g id="Layer_2-2" data-name="Layer 2"><path d="M40.63,37.26c-1.39.8-2.23,1.68-2.88,1.56A2.51,2.51,0,0,1,36.11,37,2.53,2.53,0,0,1,38,35.31C38.65,35.28,39.37,36.27,40.63,37.26Z"/><path d="M52.55,16c-.83-1.36-1.74-2.19-1.61-2.8S52.15,12,52.82,11.4c.6.67,1.61,1.31,1.68,2S53.54,14.78,52.55,16Z"/><path d="M32.26,27.08c-.86-1.33-1.76-2.1-1.68-2.76s1.09-1.29,1.7-1.92c.65.62,1.74,1.19,1.82,1.88S33.21,25.72,32.26,27.08Z"/><path d="M32.25,60.11c1,1.23,2.07,1.93,2,2.55s-1.05,1.39-1.63,2.08c-.68-.59-1.76-1.09-1.93-1.8S31.46,61.48,32.25,60.11Z"/><path d="M52.76,58.22c.88,1.33,1.81,2.12,1.74,2.8a2.52,2.52,0,0,1-1.82,1.67A2.49,2.49,0,0,1,51,61C50.91,60.26,51.85,59.51,52.76,58.22Z"/><path d="M29,65.68c.81,1.37,1.7,2.21,1.58,2.89a2.5,2.5,0,0,1-1.93,1.56A2.47,2.47,0,0,1,27,68.28C27,67.59,28,66.9,29,65.68Z"/><path d="M19.66,34.51c-.93-1.28-1.87-2-1.83-2.65s1-1.36,1.6-2c.68.59,1.8,1.11,1.93,1.8S20.54,33.11,19.66,34.51Z"/><path d="M32.35,28.85c.93,1.32,1.88,2.09,1.8,2.74a2.52,2.52,0,0,1-1.75,1.77c-.62,0-1.69-1-1.78-1.73S31.46,30.19,32.35,28.85Z"/><path d="M38.89,68.54c-1.38.8-2.22,1.69-2.87,1.56a2.51,2.51,0,0,1-1.64-1.87,2.51,2.51,0,0,1,1.88-1.63C36.92,66.57,37.63,67.55,38.89,68.54Z"/><path d="M65.41,32.58c1,1.28,2,2,1.92,2.66s-1.06,1.32-1.66,2c-.66-.59-1.74-1.11-1.87-1.8S64.58,34,65.41,32.58Z"/><path d="M14.93,36.93c-1.28,1-2,1.94-2.66,1.89a2.54,2.54,0,0,1-1.86-1.66,2.53,2.53,0,0,1,1.66-1.85C12.73,35.2,13.55,36.1,14.93,36.93Z"/><path d="M63,57.57c-1.41.74-2.26,1.55-2.92,1.42s-1.2-1.17-1.79-1.81c.67-.56,1.34-1.55,2-1.56S61.69,56.57,63,57.57Z"/><path d="M69.3,40c.88,1.32,1.8,2.1,1.69,2.71S69.87,44,69.24,44.63c-.6-.62-1.63-1.2-1.7-1.88S68.39,41.34,69.3,40Z"/><path d="M64,28.54c-.91-1.08-1.94-1.88-1.81-2.24A3.07,3.07,0,0,1,64,24.59c.45-.1,1.68,1,1.64,1.44C65.63,26.76,64.79,27.43,64,28.54Z"/><path d="M71.94,30c-1.37.71-2.16,1.45-2.92,1.41-.59,0-1.13-1-1.7-1.56.69-.56,1.33-1.43,2.1-1.56C70,28.21,70.67,29.11,71.94,30Z"/><path d="M15,29.58c-1.22,1-1.89,1.91-2.42,1.84-.77-.1-1.45-.93-2.17-1.45.53-.59,1-1.6,1.59-1.66C12.74,28.24,13.57,28.93,15,29.58Z"/><path d="M57,40.57c-1.08.94-1.85,2-2.22,1.86A3,3,0,0,1,53,40.64c-.11-.46.92-1.7,1.4-1.68C55.16,39,55.86,39.81,57,40.57Z"/><path d="M60.71,33.54c-1.19.76-1.92,1.55-2.68,1.59-.54,0-1.13-1-1.7-1.5a9.59,9.59,0,0,1,2.2-1.91C58.82,31.59,59.65,32.62,60.71,33.54Z"/><path d="M64.48,42.86c-1.16.79-2.09,1.74-2.38,1.57a9,9,0,0,1-2-2.11c.62-.47,1.31-1.4,1.84-1.32C62.71,41.12,63.35,42,64.48,42.86Z"/><path d="M27.06,8.89c.71,1.38,1.43,2.17,1.39,2.92,0,.59-1,1.12-1.6,1.67-.55-.7-1.41-1.34-1.54-2.1C25.22,10.84,26.13,10.14,27.06,8.89Z"/><path d="M59.16,49.61c-1.18,1-1.82,2-2.35,1.91-.77-.08-1.48-.88-2.21-1.37.5-.61.95-1.64,1.52-1.7C56.87,48.35,57.72,49,59.16,49.61Z"/><path d="M53.17,22.37c-1,.79-1.73,1.73-2.16,1.61-.71-.21-1.23-1.09-1.83-1.69.57-.51,1.12-1.38,1.73-1.43S52.13,21.64,53.17,22.37Z"/><path d="M68.17,50.08c-1.3.74-2,1.48-2.79,1.48-.55,0-1.11-.94-1.67-1.47.65-.58,1.23-1.47,2-1.65C66.19,48.32,66.93,49.22,68.17,50.08Z"/><polygon class="cls-1" points="2.44 22.92 23.23 1.52 54.41 2.44 75.51 23.23 75.51 54.1 55.63 73.98 22.61 74.89 1.52 54.1 2.44 22.92"/></g></g></svg>