<svg xmlns="http://www.w3.org/2000/svg" viewBox="0 0 77.01 76.41"><defs><style>.cls-1{fill:none;stroke:#000;stroke-miterlimit:10;stroke-width:3px;}</style></defs><title>VVS1</title><g><g><path d="M61.63,41.22c-1-1.26-1.93-1.94-1.93-2.62s1-1.34,1.49-2c.68.56,1.76,1,1.91,1.72S62.4,39.8,61.63,41.22Z"/><path d="M63.48,51.79c-.91-1.09-1.94-1.89-1.81-2.24a3,3,0,0,1,1.87-1.71c.45-.1,1.68,1,1.64,1.44C65.13,50,64.29,50.68,63.48,51.79Z"/><path d="M57.7,59.22c-.89-1.09-1.91-1.95-1.77-2.23a9.58,9.58,0,0,1,2-2.14c.52.59,1.49,1.2,1.45,1.75C59.32,57.35,58.5,58.05,57.7,59.22Z"/><path d="M56.4,49.49c-1,.72-1.71,1.53-2.29,1.47S53,50,52.42,49.5c.61-.58,1.14-1.46,1.85-1.65C54.7,47.74,55.42,48.7,56.4,49.49Z"/><polygon class="cls-1" points="2.44 22.92 23.23 1.52 54.41 2.44 75.51 23.23 75.51 54.1 55.63 73.98 22.61 74.89 1.52 54.1 2.44 22.92"/></g></g></svg>
