<svg xmlns="http://www.w3.org/2000/svg" viewBox="0 0 77.01 76.41"><defs><style>.cls-1{fill:none;stroke:#000;stroke-miterlimit:10;stroke-width:3px;}</style></defs><title>VVS2</title><g id="Layer_2" data-name="Layer 2"><g id="Layer_2-2" data-name="Layer 2"><path d="M24,8.59c1.41-.87,2.25-1.8,2.9-1.68s1.21,1.23,1.81,1.91c-.68.57-1.33,1.54-2,1.59S25.26,9.52,24,8.59Z"/><path d="M63.76,31.69c.83,1.38,1.72,2.21,1.6,2.85s-1.21,1.2-1.87,1.79c-.59-.67-1.6-1.3-1.65-2S62.78,33,63.76,31.69Z"/><path d="M11,27.27c-1.37.83-2.2,1.74-2.82,1.61S7,27.68,6.34,27c.67-.6,1.31-1.61,2-1.67S9.74,26.29,11,27.27Z"/><path d="M10.35,33.42c.83,1.38,1.72,2.21,1.6,2.86s-1.21,1.19-1.88,1.77c-.59-.66-1.6-1.3-1.65-2S9.37,34.68,10.35,33.42Z"/><path d="M67.5,39.11c.79,1.36,1.66,2.19,1.52,2.8s-1.2,1.22-1.85,1.82c-.58-.66-1.57-1.3-1.6-2S66.51,40.39,67.5,39.11Z"/><path d="M61,56.35c-1.32.9-2.06,1.8-2.72,1.74s-1.34-1-2-1.57c.6-.64,1.13-1.71,1.8-1.81S59.6,55.49,61,56.35Z"/><path d="M52.38,37.08c1,1.23,1.89,1.92,1.81,2.45-.12.77-1,1.43-1.51,2.13-.58-.54-1.59-1-1.63-1.63C51,39.28,51.7,38.48,52.38,37.08Z"/><path d="M62.48,41.66c-1,.93-1.86,2-2.15,1.85a9.1,9.1,0,0,1-2.22-1.88c.56-.55,1.13-1.55,1.67-1.53C60.55,40.13,61.28,40.91,62.48,41.66Z"/><path d="M56.69,28.13c.63,1.43,1.31,2.26,1.22,3-.06.57-1.08,1-1.68,1.55-.51-.72-1.33-1.4-1.43-2.18C54.74,30,55.69,29.32,56.69,28.13Z"/><path d="M54.57,46.7c.85,1.12,1.85,2,1.69,2.32a3.05,3.05,0,0,1-1.95,1.62c-.46.09-1.65-1-1.58-1.51C52.83,48.4,53.7,47.77,54.57,46.7Z"/><path d="M66.2,49.24c-1.32.71-2.08,1.43-2.83,1.42-.55,0-1.08-1-1.63-1.5.67-.58,1.27-1.45,2-1.61C64.27,47.44,65,48.35,66.2,49.24Z"/><polygon class="cls-1" points="2.44 22.92 23.23 1.52 54.41 2.44 75.51 23.23 75.51 54.1 55.63 73.98 22.61 74.89 1.52 54.1 2.44 22.92"/></g></g></svg>