<svg xmlns="http://www.w3.org/2000/svg" viewBox="0 0 115.18 54.52"><title>3-stone</title><g><path d="M83.91,33.22c-4.24,13-12.55,20.88-26.3,21.29-13.38.39-22.14-6.67-27.3-19.21-4.17,5.28-9.51,8.43-16,7A21.11,21.11,0,0,1,4.11,36.82C-2,30.52-1.07,20.33,5.41,14.46c7.24-6.56,16.44-5.39,25.37,3.43C36.09,6.31,44.9-.45,57.79,0S79.06,7.79,83.62,20.25c2.77-4.84,6.12-8.59,11.3-9.39a22.82,22.82,0,0,1,9.84.53c6.75,2.09,10.77,8.76,10.4,16a16.15,16.15,0,0,1-11.73,14.74C96,44.19,89.3,41.23,83.91,33.22ZM32.84,27.1a24,24,0,1,0,48,.42,24,24,0,0,0-48-.42ZM99.07,39.39A13.13,13.13,0,0,0,112,26.53a13,13,0,0,0-26-.17A13.23,13.23,0,0,0,99.07,39.39Zm-69.9-12.8a12.82,12.82,0,1,0-12.73,12.8A12.73,12.73,0,0,0,29.17,26.59Z"/></g></svg>
