<svg xmlns="http://www.w3.org/2000/svg" viewBox="0 0 115.21 60.35">
  <title>Halo</title><g><path d="M29.23,40.2c-7.26,0-14,0-20.65,0C2.9,40.17,0,37.27,0,31.83c.05-5.19,3-8,8.55-8,6.7,0,13.4,0,20.67,0,0-2.89,0-5.56,0-8.23C29.37,6.13,35.5.05,44.94,0Q57.81,0,70.68,0C79.77.07,85.79,6.1,85.89,15.2c0,2.7,0,5.41,0,8.64,7.22,0,14.13,0,21,0,5.67,0,8.42,2.92,8.26,8.57-.13,5-2.88,7.73-8,7.77-6.94.05-13.89,0-21.34,0,0,2.1,0,3.92,0,5.73A14.35,14.35,0,0,1,71.39,60.3c-9,.09-17.9.05-26.86,0-8.78,0-15-6.06-15.29-14.86C29.18,43.86,29.23,42.26,29.23,40.2Zm53.1-9.85V15.08c0-.24,0-.49,0-.74C82,8,77.59,3.73,71.24,3.68q-13.42-.09-26.86,0c-6.86,0-11.46,4.54-11.52,11.42q-.13,15.07,0,30.16c.06,6.88,4.66,11.37,11.54,11.41q13.24.07,26.48,0c6.82,0,11.24-4.28,11.42-11.05C82.43,40.53,82.32,35.44,82.33,30.35ZM86,36.54c7.59,0,14.87.09,22.15,0,2.85,0,3.66-2.19,3.61-4.66s-1.1-4.34-4-4.36c-4.84,0-9.67,0-14.51,0H86ZM29.06,27.48c-7.47,0-14.64-.05-21.81,0-2.63,0-3.57,1.75-3.62,4.22s.55,4.69,3.43,4.75c7.28.16,14.56.05,22,.05Z"/><path d="M40.31,30.15c0-3.35-.08-6.7,0-10a8.8,8.8,0,0,1,8.94-9q8.38-.17,16.78,0c5,.1,8.59,3.29,8.78,8.28.28,7.18.28,14.39,0,21.57-.2,5-3.82,8.14-8.82,8.24-5.59.1-11.18.11-16.77,0-5.17-.1-8.76-3.8-8.91-9C40.24,36.85,40.31,33.5,40.31,30.15Zm3.63,0c0,3.11,0,6.21,0,9.31.07,4.28,1.84,6.18,6.07,6.27,5.1.1,10.21.09,15.31,0,4-.08,6-2,6.14-5.93.14-6.33.13-12.67,0-19-.08-4-2.1-6-6-6.06q-7.83-.16-15.67,0c-4,.08-5.77,2-5.84,6.1C43.9,23.89,43.94,27,43.94,30.1Z"/></g></svg>
