<svg xmlns="http://www.w3.org/2000/svg" viewBox="0 0 73.68 60.43"><title>Loose</title><g ><path d="M0,20.3C4,14,7.8,7.74,11.82,1.67A4.57,4.57,0,0,1,15.13.08q22.1-.16,44.2,0a4.49,4.49,0,0,1,3.21,1.69C66.11,7.12,69.41,12.65,72.93,18c1.08,1.64,1,2.79-.33,4.2C60.7,34.86,48.85,47.53,36.76,60.43ZM19,3.71c2.45,5.16,4.53,9.75,6.83,14.23a3.44,3.44,0,0,0,2.59,1.36c5.69.12,11.38.1,17.07,0,.86,0,2.18-.36,2.5-1,2.46-4.72,4.72-9.55,7.19-14.64ZM27.57,23l9.18,28.07.78-.06,8.92-28ZM32.28,50.5l.51-.29c-2.74-8.53-5.47-17.08-8.29-25.59-.22-.68-1.08-1.63-1.66-1.64-5-.14-9.93-.08-15.7-.08ZM67.15,22.84c-4.89,0-8.69.27-12.43-.08s-5.19,1-6.14,4.47c-2,7.38-4.52,14.65-6.81,22l.58.28ZM14.83,3.06,4.77,19.13H22.55ZM51.62,19.17h17.9C66.13,13.75,63,8.71,59.44,3.08Z"/></g></svg>
