<svg xmlns="http://www.w3.org/2000/svg" viewBox="0 0 115.45 59.47"><title>radial-set</title><g id="Layer_2" ><path id="radial-set" d="M28.26,33.11l-.36-5.45c-6.72,0-13.27,0-19.81,0C4.59,27.71,2,26.31.8,23c-1.26-3.46-1.27-7.09,1.72-9.61a10.51,10.51,0,0,1,6.05-2.13c7.57-.24,15.16,0,22.74-.19A8.28,8.28,0,0,0,36.4,9C48.71-3,67-3,79.27,9a8.22,8.22,0,0,0,5.1,2.05c7.58.22,15.16.06,22.75.1,5.47,0,8.28,2.88,8.27,8.27s-2.71,8.16-8.3,8.2c-6.33,0-12.66,0-19.3,0v5.92c3.76,0,7.71,0,11.65,0,3.48,0,7-.15,10.44,0s5.23,2,5.5,5.72c.4,5.56-.87,8.39-4.68,8.66-4.16.3-8.38-.24-12.58-.33-1.27,0-2.54.33-3.82.34-4,.05-8.09,0-12.7,0a30.07,30.07,0,0,1-47.1.33c-5.53-.35-10.25-.84-15-.88-3.65,0-7.3.59-11,.79-8.77.48-8.84-4.4-8.23-10.11a4.76,4.76,0,0,1,5.08-4.51c4.19.07,8.38.63,12.56.6C21.24,34.12,24.51,33.51,28.26,33.11Zm55.56-3.18A25.85,25.85,0,0,0,58.1,3.69a26.15,26.15,0,0,0-26.45,26,26.34,26.34,0,0,0,26.26,26A26,26,0,0,0,83.82,29.93ZM31.59,14.87c-8.29,0-16.3-.1-24.31.06C4.44,15,3.8,17.19,3.85,19.7s1,4.22,3.58,4.27c6.44.12,12.89.1,19.33,0a2.92,2.92,0,0,0,2.16-1.44C29.92,20.18,30.63,17.71,31.59,14.87ZM87.28,24c7,0,13.8,0,20.63,0,2.86,0,3.89-1.85,3.93-4.4s-.71-4.66-3.59-4.7c-8-.12-16,0-24.29,0C85.12,18.08,86.13,20.84,87.28,24ZM105.21,37.1a22.35,22.35,0,0,1-2.59,0c-3.12-.39-4.11,1-4,4,.09,2.55,1,3.62,3.54,3.51a46.71,46.71,0,0,1,5.55,0c3,.23,4.25-.83,4.24-4s-1.48-3.84-4.14-3.58A24.86,24.86,0,0,1,105.21,37.1Zm-94.78,0a29.4,29.4,0,0,1-3,0c-2.71-.27-3.69.83-3.69,3.61s.94,4.16,3.86,3.94a35.39,35.39,0,0,1,4.83,0c2.7.17,4.39-.21,4.34-3.72-.05-3.23-1.21-4.2-4.14-3.83A18.42,18.42,0,0,1,10.43,37.1Zm73.92,7.51c2.58,0,4.76-.12,6.93,0,3,.21,3.77-1.14,3.77-4S94.14,37,91.42,37C86.15,37.09,86,37.1,84.35,44.61Zm-52.79-.14c-2.57-7.84-2.81-8.1-8.37-7.28-.86.13-2.24,1.39-2.21,2.06.11,1.76.57,4.8,1.4,5C25.25,44.85,28.34,44.47,31.56,44.47Z"/></g></svg>
