<svg xmlns="http://www.w3.org/2000/svg" viewBox="0 0 115.26 59.07">
  <title>solitaire</title>
  <g><path id="solitaire" d="M98,38.75a10.58,10.58,0,0,1-1.49,0c-6.5-.84-10.87.51-14.61,7.25C76.35,56.11,66.2,60,54.58,58.89c-11-1.07-19-6.89-23.74-16.8-1.32-2.77-2.79-3.49-5.59-3.4-5.71.19-11.43.1-17.15.05-5.18-.05-8.06-3-8.1-8.08,0-5.35,2.82-8.31,8.19-8.35,5.84,0,11.69-.09,17.53,0,2.14.05,3.24-.52,4.06-2.68C34.45,7.4,45.16,0,57.74,0S81,7.54,85.65,19.8c.77,2.05,1.75,2.58,3.77,2.54,6-.11,11.93-.08,17.9,0,5.22.05,7.93,2.9,7.94,8.19s-2.73,8.15-7.9,8.24C104.26,38.79,101.15,38.75,98,38.75ZM83.67,29.6a25.84,25.84,0,0,0-26-25.93A26.13,26.13,0,0,0,31.48,29.58a26.32,26.32,0,0,0,26.16,26A26,26,0,0,0,83.67,29.6ZM28.08,26c-7.19,0-14-.07-20.81,0-2.63,0-3.56,1.81-3.61,4.26S4.11,34.87,6.72,35c7.16.23,14.33.08,21.36.08Zm59.35,9.11c7,0,13.9.09,20.82,0,2.67-.05,3.44-2.11,3.45-4.43s-.64-4.48-3.31-4.54c-6.92-.17-13.84-.06-21-.06Z"/></g></svg>
