<svg xmlns="http://www.w3.org/2000/svg" viewBox="0 0 53.77 61.54"><title>cushion</title><g><path d="M53.74,30.68c0,5.09.08,10.17,0,15.26-.19,9-6.62,15.4-15.64,15.52q-11.17.15-22.35,0C6.7,61.34.22,54.94.1,45.93q-.19-15.26,0-30.51C.24,6.62,6.73.23,15.54.09q11.37-.18,22.73,0A15.25,15.25,0,0,1,53.71,15.42C53.84,20.51,53.73,25.59,53.74,30.68Zm-49.91,0c0,5.21-.12,10.43,0,15.64C4,52.83,8.68,57.57,15.21,57.71c7.82.16,15.66.18,23.48,0A11.21,11.21,0,0,0,50,46.18q.19-15.27,0-30.54c-.08-7-4.82-11.71-11.73-11.82Q27,3.64,15.86,3.82c-7.35.1-11.95,4.86-12,12.29C3.77,21,3.82,25.8,3.83,30.64Z"/></g></svg>
