<svg xmlns="http://www.w3.org/2000/svg" viewBox="0 0 61.59 62.02"><title>Emerald</title><g><path d="M61.52,30.87c0,4.59.2,9.2-.1,13.77-.12,1.74-1.35,3.44-2.19,5.09-.26.51-1,.73-1.38,1.22-7.07,9.59-16.69,12.11-28.06,10.71C24.54,61,18.58,62.73,14,60.83S6.55,53.76,2.71,50.24A7.84,7.84,0,0,1,0,43.73C.16,35.16,0,26.59.15,18a8.55,8.55,0,0,1,1.91-4.88C5.32,9.23,8.78,5.49,12.38,1.9A6.65,6.65,0,0,1,16.54.12q13.59-.24,27.2,0A8,8,0,0,1,48.31,2C52,5,55.44,8.17,58.78,11.49A6.82,6.82,0,0,1,60.7,15.6c.23,5.08.09,10.18.09,15.27Zm-4.15.05c.73-9.4.52-18.43-9.07-23.92-.63-.37-1.08-1.1-1.74-1.38C45.05,5,43.46,4,41.89,4c-7.07-.17-14.15.06-21.21-.13-3.44-.09-6.16.46-8.31,3.54C10.54,10,7.89,12,5.93,14.55A9.08,9.08,0,0,0,4,19.45Q3.7,31.36,4,43.27a7.79,7.79,0,0,0,1.78,4.57A82.4,82.4,0,0,0,13.91,56a7.15,7.15,0,0,0,4.23,1.66q11.9.23,23.81,0a8.08,8.08,0,0,0,4.63-1.72c11.13-9,11.1-9.08,10.79-23.14C57.35,32.16,57.37,31.54,57.37,30.92Z"/></g></svg>
