<svg xmlns="http://www.w3.org/2000/svg" viewBox="0 0 61.47 61.49"><title>princess</title><g><path d="M30.44,61.42c-8.93,0-17.85-.09-26.78,0C1,61.51,0,60.87,0,58Q.18,30.83,0,3.68C0,1,.61,0,3.5,0q27.14.2,54.28,0c3.13,0,3.67,1.12,3.66,3.88-.1,17.85-.15,35.71,0,53.56,0,3.45-1.14,4.11-4.26,4C48.29,61.29,39.36,61.42,30.44,61.42Zm.27-3.73c7.93,0,15.86-.07,23.78.05,2.42,0,3.23-.75,3.22-3.19q-.14-23.79,0-47.58c0-2.41-.74-3.23-3.19-3.21Q30.75,3.88,7,3.76c-2.41,0-3.23.74-3.22,3.18q.13,23.79,0,47.58c0,2.41.74,3.25,3.19,3.22C14.85,57.62,22.78,57.69,30.71,57.69Z"/></g></svg>
